<?xml version="1.0" encoding="utf-8"?>
<!-- Generator: Adobe Illustrator 24.0.3, SVG Export Plug-In . SVG Version: 6.00 Build 0)  -->
<svg version="1.1" id="Layer_1" xmlns="http://www.w3.org/2000/svg" xmlns:xlink="http://www.w3.org/1999/xlink" x="0px" y="0px"
	 viewBox="0 0 34 42.5" style="enable-background:new 0 0 34 42.5;" xml:space="preserve">
<style type="text/css">
	.st0{fill:#FFFFFF;}
</style>
<title>award</title>
<path class="st0" d="M3.9,1.6c-1.3,0-2.3,1-2.3,2.3v1.4c0,2.2,0.8,4.3,2.1,6.1c1.1,1.4,2.8,2.5,4.6,3.1l1.2,0.4L9.5,15
	c1.1,1.8,2.8,3.1,4.8,3.8l0.4,0.1v1.8c0,0.8-0.6,1.4-1.4,1.4c-1.3,0-2.3,1-2.3,2.3v1.4H9.5c-0.2,0-0.4,0.2-0.4,0.4v5.2H7.7
	c-0.2,0-0.4,0.2-0.4,0.4s0.2,0.4,0.4,0.4h18.7c0.2,0,0.4-0.2,0.4-0.4s-0.2-0.4-0.4-0.4h-1.4v-5.2c0-0.2-0.2-0.4-0.4-0.4H23v-1.4
	c0-1.3-1-2.3-2.3-2.3c-0.8,0-1.4-0.6-1.4-1.4v-1.8l0.4-0.1c2-0.6,3.8-2,4.8-3.8l0.1-0.2l1.2-0.4c1.8-0.6,3.3-1.7,4.5-3.1
	c1.4-1.7,2.1-3.9,2.1-6.1V3.9c0-1.3-1-2.3-2.3-2.3L3.9,1.6z M3.9,2.4h3.4l1,9c0.1,0.5,0.1,0.9,0.3,1.4l0.3,1l-1-0.4
	C6.6,12.9,5.4,12,4.6,11h0l-0.2-0.2C3.1,9.2,2.4,7.3,2.4,5.3V3.9C2.4,3.1,3.1,2.4,3.9,2.4z M8.1,2.4h17.7l-1,8.9
	c-0.4,3.3-2.8,6.1-6.1,6.8c-0.2,0-0.3,0.2-0.3,0.4v2.2c0,1.3,1,2.3,2.3,2.3c0.8,0,1.4,0.6,1.4,1.4v1.4H11.8v-1.4
	c0-0.8,0.6-1.4,1.4-1.4c1.3,0,2.3-1,2.3-2.3v-2.2c0-0.2-0.1-0.4-0.3-0.4v0c-3.3-0.8-5.7-3.5-6.1-6.8L8.2,3L8.1,2.4z M26.7,2.4h3.4
	c0.8,0,1.4,0.6,1.4,1.4v1.4c0,2-0.7,4-1.9,5.5c-0.9,1.2-2.1,2.1-3.5,2.6l-1,0.4l0.3-1c0.1-0.5,0.2-0.9,0.3-1.4l1-8.6L26.7,2.4z
	 M10,26.8H24v4.8H10v-4.3V26.8z"/>
</svg>
