<?xml version="1.0" encoding="utf-8"?>
<!-- Generator: Adobe Illustrator 24.0.3, SVG Export Plug-In . SVG Version: 6.00 Build 0)  -->
<svg version="1.1" id="Layer_1" xmlns="http://www.w3.org/2000/svg" xmlns:xlink="http://www.w3.org/1999/xlink" x="0px" y="0px"
	 viewBox="0 0 65 81.2" style="enable-background:new 0 0 65 81.2;" xml:space="preserve">
<style type="text/css">
	.st0{fill:#FFFFFF;stroke:#000000;stroke-miterlimit:10;}
</style>
<path class="st0" d="M58.6,21.1c1-2.4,2.6-6.1,2.3-8.5c0-0.2-0.2-0.5-0.4-0.6s-0.5-0.1-0.7,0c-0.3,0.1-0.5,0.2-0.8,0.2
	c-0.8,0-1.5-1.1-2.2-2.3C56,8.5,55.1,7,53.5,6.6c-0.3-0.1-0.6-0.1-1-0.1c-3.8,0-16,2.6-17.6,5.2c-0.5,0.6-0.9,1.2-1.2,1.8
	c-0.2,0.4-0.4,0.8-0.7,1.1l-1.5,1.1l-1.6,1c-0.5,0.1-1.3,0-2-0.1c-0.5-0.1-1-0.2-1.5-0.2c-0.1,0-0.3-0.1-0.5-0.1
	c-0.2-0.1-0.4-0.1-0.6-0.1c-0.3,0-0.5,0.1-0.7,0.3c-1.5,1.9-1.8,4.8-2.1,7.5c-0.1,1.5-0.3,3-0.6,4c-1.1,2.7-3.2,5.6-4.9,7.4
	c-0.2,0.3-0.4,0.5-0.6,0.8c-0.4,0.6-0.8,1.1-1.3,1.4c-0.1,0-0.3,0-0.4,0c-0.2,0-0.4,0-0.5,0c-0.9,0-1.2,0.6-1.2,0.8
	c-0.3,0.8,0.1,1.5,0.4,2.2c0.2,0.4,0.4,0.9,0.4,1.1c-0.9,1.5-3.4,1.5-4.7,1.5c-0.7,0-1.3,0-1.5,0.6c-0.1,0.2-0.1,0.7,0.5,1
	c0.5,0.3,1,0.7,1.5,1.1c0.1,0.1,0.3,0.2,0.4,0.3C9.1,46.1,8.2,46,7.3,46c-1,0-2.7,0.1-3.3,1.1c-0.3,0.4-0.3,0.8-0.1,1.3l0,0
	c0.3,0.5,1.4,1.3,2.7,2.1c-0.2,0-0.4-0.1-0.7-0.1c-1.1-0.2-2.1-0.2-3.2,0.2c-0.2,0.1-0.4,0.2-0.5,0.4s-0.1,0.4,0,0.6L2.6,52
	c-0.1,1.2,0.1,2,0.6,2.5c0.6,0.6,1.3,0.7,1.9,0.7c0.4,0,0.8,0,1.2-0.1c0.8-0.1,1.6-0.1,2.2,0c-0.1,0.3-0.1,0.8,0.2,1.2l0.1,0.1
	C9.4,56.8,10,57,10.5,57c1.5,0,2.7-1.2,3.7-2.2c0.2-0.2,0.5-0.5,0.7-0.7c0.2-0.1,0.2-0.3,0.3-0.5c0-0.2-0.1-0.4-0.2-0.6
	c-0.2-0.2-0.5-0.5-0.8-0.7c0.2,0,0.3,0,0.5,0c0.1,0,0.3,0,0.4,0c0.2,0,0.3,0,0.3,0.1c0.3,0.3,0.6,0.7,0.7,1.1
	c0.1,0.2,0.2,0.4,0.5,0.5l0.2,0.1c0.5,0.2,1,0.3,1.6,0.1c0.4,0,0.6-0.3,0.7-0.4c0.4-0.5,0.2-1.1,0-1.7c-0.1-0.3-0.2-0.7-0.2-0.9
	c0.1,0,0.2,0,0.6,0c-0.1,0.3-0.1,0.7,0.2,1.1c0.5,0.4,1,0.6,1.5,0.6c0.6,0,1.1-0.3,1.5-0.7v0.1c0,0.3,0.2,0.5,0.5,0.7
	c1.3,0.7,1.8,0.9,2.2,0.9c0.4,0,1-0.2,1-1.2c0-0.3,0-0.5,0.5-0.7c0.1,0.3,0.3,0.8,0.4,1.1c0.7,2.2,1.3,3.6,2.3,3.8
	c0.6,0.1,1.1,0.2,1.8,0.3c2.2,0.3,4.5,0.6,6.1,2.3c-0.2,0.2-0.5,0.4-0.6,0.6v0.1c-0.1,0.4-0.3,0.8-0.6,1.2c-0.3,0.6-0.7,1.2-0.8,1.9
	v0.1c0,0.3,0.1,0.5,0.3,0.6c-0.3,0.2-0.6,0.6-0.8,1.1c-0.4,1.6-0.4,2.7,0.1,3.4c0.6,0.8,1.6,0.9,2.5,0.9c0.3,0,0.6,0,0.9,0
	c0.5,0,1,0,1.7,0h0.2l0,0c0.4,0,0.8-0.3,0.8-0.8c0-0.2-0.1-0.4-0.2-0.5c-0.1-0.2-0.2-0.4-0.3-0.5c0.1-0.1,0.2-0.1,0.3-0.2
	c0.4-0.2,1-0.5,1.2-1.2c0.3-1.7-0.7-2.8-1.7-3.6l3.1-2.7c0.1-0.1,0.2-0.3,0.2-0.4c0.1-0.3,0-0.6-0.2-0.9c-0.3-0.4-0.8-0.4-1.1-0.4
	c0.2-0.4,0.6-0.8,0.9-1.2c0.5-0.6,0.9-1.1,1.2-1.8c1.3-3.3-0.7-5.8-2.2-7.7c-0.4-0.5-0.8-1-1-1.4c0-0.1,0.1-0.3,0.2-0.4l0.1-0.2
	c0.1-0.1,0.1-0.2,0.1-0.3c0-0.2,0-0.4-0.1-0.5c0.2,0,0.5,0,0.8,0c0.2,0,0.3,0,0.5,0c0.3,0,0.7,0,1.2-0.2h0.1
	c0.2-0.1,0.3-0.2,0.4-0.4c0.5,0.4,1.2,1,2.2,1c0.1,0,0.2,0,0.3,0c1.6,0,6.2-1.5,6.9-3.1c0.5-1.2-0.9-1.9-1.5-2.2
	c-0.1,0-0.1-0.1-0.2-0.1c0.5-0.3,0.9-0.6,1.4-0.8c2.3-1.3,4.7-2.7,4-6.6c-0.1-1.7-2-2.2-3.5-2.5c-0.6-0.1-1.7-0.4-1.8-0.7
	c0,0,0-0.1,0.1-0.2l0,0c0.1,0,0.2,0,0.3,0c0.5,0,0.9-0.3,0.9-0.7c0.1-0.5-0.1-1-0.3-1.3c0.5,0,1,0.1,1.5,0.2
	c0.6,0.1,1.2,0.3,1.9,0.3c0.5,0,0.8-0.2,1-0.4c0.5-0.6,0.4-1.5,0.3-2.5c-0.1-0.6-0.1-1.4,0-1.8C58,22.3,58.3,21.8,58.6,21.1z
	 M31.2,17.9l1.3-1l1.1-0.7c0.3,0,0.5-0.1,0.9-0.4c0.1-0.1,0.2-0.2,0.4-0.3l0.1,0.1c-0.1,0.5-0.3,1-0.5,1.5c-0.2,0.6-0.5,1.2-0.6,1.9
	v0.1c0,0.5,0.2,0.9,0.7,1.1c0.5,0.3,1.3,0.2,2.3,0.1c0.9-0.1,1.9-0.1,2,0.1s-0.5,0.8-0.8,1.1C37.5,22.1,36.7,23,37,24
	c0.1,0.2,0.1,0.4,0.2,0.5c-1.9,0.2-3.8,2.4-5.3,4.1c-0.4,0.5-1,1.2-1.3,1.4l-1-0.4c0.2-0.2,0.4-0.3,0.6-0.4c0.5-0.4,0.9-0.6,1.1-0.9
	c0.9-1,0.1-2-0.4-2.6c-0.4-0.5-0.5-0.7-0.4-0.9c0.2-0.4,0.7-0.5,1.5-0.7c0.7-0.2,1.4-0.3,2.1-0.8c0.4-0.3,1.1-0.8,0.9-1.5
	c-0.2-0.7-0.8-0.7-1.5-0.8c-0.7-0.1-1.8-0.2-2.2-0.9C31,19.7,31,18.9,31.2,17.9z M5.4,47.8c0.3-0.1,0.8-0.3,1.9-0.3
	c0.9,0,1.9,0.1,3,0.4c0.2,0.1,0.6,0.7,0.9,1.1c0.2,0.3,0.4,0.5,0.6,0.8c-0.2,0-0.4,0.1-0.6,0.3c0,0-0.1,0-0.1,0.1
	c-0.2,0.2-0.3,0.5-0.4,0.7C9.4,50.4,6.4,48.5,5.4,47.8z M6.2,53.6c-0.4,0-0.7,0.1-1,0.1c-0.5,0-0.7-0.1-0.8-0.2
	C4.2,53.4,4,53,4.1,51.9c0-0.1,0-0.2,0-0.2c0.5-0.1,1-0.1,1.6,0.1c1.4,0.2,1.7,0.6,1.9,1c0.2,0.3,0.5,0.7,0.9,0.9
	C7.8,53.5,6.9,53.6,6.2,53.6z M8.9,51.9c-0.1-0.2-0.2-0.3-0.3-0.4c0.7,0.4,1.4,0.7,1.9,0.9c-0.1,0.1-0.1,0.1-0.1,0.2
	C9.3,52.5,9.1,52.3,8.9,51.9z M13.2,53.8c-1,1-2.1,2.1-3.2,1.6c0.3-0.9,0-1.2-0.4-1.4c0.2,0,0.4,0,0.7,0c0.8,0,1.2-0.6,1.5-1
	c0.1-0.1,0.2-0.3,0.2-0.3c0.3,0.2,0.8,0.5,1.3,1C13.3,53.6,13.2,53.7,13.2,53.8z M14.9,50.6c-0.5,0-1.2-0.6-1.7-1.3
	c0.5,0.3,1.1,0.4,1.6,0.6c0.3,0.1,0.6,0.2,0.9,0.3C15.4,50.4,15.2,50.6,14.9,50.6z M40.6,65.8c0,0.1-0.3,0.2-0.4,0.2
	c-0.4,0.2-1,0.5-1.2,1.2c0,0.1,0,0.1,0,0.2s0,0.3,0.1,0.4c-0.2,0-0.5,0-0.7,0c-0.3,0-0.6,0-0.9,0c-0.7,0-1.2-0.1-1.3-0.3
	c-0.1-0.1-0.3-0.6,0.1-2.1c0-0.1,0.2-0.3,0.4-0.4c0.3-0.2,0.6-0.5,0.8-0.9c0.1-0.2,0.1-0.5,0-0.7S37.2,63,37,63
	c0.1-0.2,0.3-0.5,0.4-0.8c0.2,0.3,0.6,0.6,1,0.8C39.6,63.9,40.8,64.7,40.6,65.8z M57.2,20.5c-0.3,0.8-0.6,1.4-0.7,1.6
	c-0.3,0.7-0.2,1.6-0.1,2.4c0,0.4,0.1,1,0,1.2c-0.5,0-1-0.1-1.5-0.2c-0.6-0.1-1.2-0.3-1.9-0.3c-1,0-1.6,0.3-1.6,1
	c-0.1,0.4,0.1,0.8,0.2,1.1c-0.4,0.1-0.6,0.4-0.7,0.6c-0.3,0.6-0.4,1.1-0.2,1.6c0.4,0.9,1.6,1.2,2.8,1.6c1,0.3,2.3,0.6,2.4,1.3
	c0.5,2.9-1.1,3.9-3.3,5.1c-0.6,0.3-1.2,0.7-1.8,1.1c-0.5,0.3-0.7,0.7-0.7,1.2c0.1,0.7,0.7,1,1.4,1.3c0.2,0.1,0.5,0.2,0.7,0.4
	c-0.6,0.7-4,2-5.4,2h-0.1h-0.1c-0.5,0-0.9-0.3-1.3-0.7c-0.4-0.3-0.8-0.7-1.4-0.8c-0.4-0.1-0.7,0-0.9,0.3s-0.2,0.6-0.1,0.9
	c-0.2,0-0.4,0-0.6,0c-0.2,0-0.3,0-0.5,0c-0.4,0-0.9,0-1.4,0.3c-0.8,0.4-0.5,1.2-0.5,1.5c0,0,0,0,0,0.1c-0.2,0.4-0.5,1.1-0.2,1.7
	c0.3,0.5,0.8,1.1,1.2,1.7c1.4,1.7,3,3.7,2,6.1c-0.2,0.5-0.6,1-1,1.5c-0.5,0.6-0.9,1.1-1.2,1.8c-0.3,0.5-0.3,1-0.1,1.3
	s0.4,0.4,0.7,0.5l-2,1.8c-0.2-0.2-0.5-0.4-1-0.4c-0.1,0-0.3,0-0.3,0h-0.1c0,0,0-0.1,0.1-0.2c0.1,0,0.1-0.1,0.2-0.2
	c0.3-0.2,1-0.8,0.7-1.6c0,0,0-0.1-0.1-0.1c-2-2.6-4.9-3-7.4-3.3c-0.6-0.1-1.1-0.1-1.6-0.2c-0.4-0.2-1-2-1.2-2.8
	c-0.5-1.6-0.8-2.3-1.5-2.3c-0.1,0-0.1,0-0.2,0c-1.6,0.4-2,1.2-2,1.8c-0.1-0.1-0.3-0.1-0.5-0.2c0.4-0.4,1.2-1.3,0.4-2.1
	c-0.3-0.3-0.7-0.4-1-0.4c-0.8,0-1.3,0.6-1.8,1.1c-0.3,0.3-0.6,0.7-0.9,0.7H21c0.1-0.3,0.3-0.7,0-1.1c-0.1-0.2-0.3-0.3-0.5-0.3l0,0
	c-1.5-0.4-2.4-0.3-2.9,0.3c-0.5,0.7-0.2,1.5,0,2.3c0,0.1,0,0.1,0.1,0.2c-0.1,0-0.2,0-0.3-0.1c-0.2-0.5-0.5-0.9-0.9-1.3
	c0.2-0.2,0.4-0.4,0.6-0.6c0.3-0.5,0.3-0.9,0.2-1.1c-0.2-0.5-0.6-0.7-1.1-0.9l0,0c0.1,0,0.1-0.1,0.1-0.1c0.3-0.3,0.4-0.7,0.3-1.2
	c-0.2-0.9-1.3-1.6-2-1.8c-0.5-0.2-1.1,0.1-1.5,0.4c-0.1,0.1-0.4,0.2-0.4,0.3c-0.8-0.4-1.5-0.9-2.2-1.5l-0.1-0.1
	c1.6-0.1,3.6-0.5,4.6-2.2c0.4-0.9,0-1.8-0.3-2.5c-0.1-0.3-0.3-0.6-0.3-0.9c0.1,0,0.1,0,0.2,0c0.6,0.1,1.1,0,1.4-0.2
	c0.7-0.4,1.2-1.2,1.7-1.8c0.2-0.3,0.4-0.5,0.5-0.7c1.7-1.9,4-5,5.2-7.9c0.4-1.2,0.6-2.8,0.7-4.4c0.2-2.4,0.5-4.8,1.5-6.4
	c0.5,0.2,1.3,0.2,2.1,0.3c0.6,0.1,1.2,0.2,1.8,0.2c-0.2,1.1,0,2,0.4,2.7c0.6,1,1.7,1.3,2.6,1.5c-0.3,0.1-0.6,0.2-1,0.3
	c-0.9,0.2-2,0.5-2.5,1.4c-0.8,1.1,0,2.1,0.5,2.6c0.2,0.2,0.4,0.5,0.4,0.6l-0.1,0.1c-0.1,0.1-0.5,0.4-0.8,0.6c-1,0.7-2.1,1.5-1.5,2.4
	c0.1,0.1,0.2,0.2,0.4,0.3l2.2,0.8c0.1,0,0.2,0,0.3,0c0.7,0,1.2-0.6,2.4-2c1.4-1.6,3.6-4.2,4.9-3.4c0.3,0.2,0.5,0.3,0.7,0.3
	c0.3,0,0.6-0.2,0.7-0.4c0.2-0.4,0-0.8-0.3-1.2c-0.2-0.3-0.6-0.8-0.7-1.3c0-0.2,0.5-0.8,0.8-1c0.7-0.7,1.5-1.6,1.1-2.7
	c-0.3-0.7-1-1.1-2.1-1.1c-0.5,0-0.9,0.1-1.4,0.1c-0.4,0-0.7,0.1-1.1,0.1c-0.1,0-0.1,0-0.2,0c0.1-0.4,0.3-0.9,0.4-1.3
	c0.2-0.6,0.5-1.2,0.6-1.9v-0.1c0-0.5-0.2-0.8-0.4-1.1c-0.1-0.1-0.1-0.2-0.2-0.3c-0.1-0.2-0.3-0.4-0.6-0.4c0.2-0.4,0.5-0.8,0.9-1.3
	C37.4,10.8,48.7,8,52.6,8c0.4,0,0.6,0,0.6,0c1,0.2,1.7,1.4,2.3,2.6c0.9,1.5,1.8,3.1,3.5,3.1c0.1,0,0.2,0,0.4,0
	C59.3,15.8,58,18.8,57.2,20.5z"/>
</svg>
