<?xml version="1.0" encoding="utf-8"?>
<!-- Generator: Adobe Illustrator 24.0.3, SVG Export Plug-In . SVG Version: 6.00 Build 0)  -->
<svg version="1.1" id="Layer_1" xmlns="http://www.w3.org/2000/svg" xmlns:xlink="http://www.w3.org/1999/xlink" x="0px" y="0px"
	 viewBox="0 0 100 125" style="enable-background:new 0 0 100 125;" xml:space="preserve">
<style type="text/css">
	.st0{fill:#EB0000;stroke:#231F20;stroke-width:4;stroke-miterlimit:10;}
	.st1{font-family:'HelveticaNeue-Bold';}
	.st2{font-size:5px;}
</style>
<polygon class="st0" points="50.1,0.6 43,7.6 74.8,39.4 60.7,53.6 57.1,50.1 67.7,39.4 39.4,11.2 0.6,50.1 7.6,57.1 39.4,25.3 
	53.6,39.4 50.1,43 39.4,32.4 11.2,60.7 50.1,99.6 57.1,92.5 25.3,60.7 39.4,46.5 43,50.1 32.4,60.7 60.7,88.9 99.6,50.1 92.5,43 
	60.7,74.8 46.5,60.7 50.1,57.1 60.7,67.7 88.9,39.4 "/>
<text transform="matrix(1 0 0 1 0 115)" class="st1 st2">Created by Avana Vana</text>
<text transform="matrix(1 0 0 1 0 120)" class="st1 st2">from the Noun Project</text>
</svg>
