<!-- Generator: Adobe Illustrator 24.0.1, SVG Export Plug-In  -->
<svg version="1.1" xmlns="http://www.w3.org/2000/svg" xmlns:xlink="http://www.w3.org/1999/xlink" x="0px" y="0px"
	 width="151.82px" height="12px" viewBox="0 0 151.82 12" style="enable-background:new 0 0 151.82 12;" xml:space="preserve">
<defs>
</defs>
<g>
	<g>
		<path d="M4.77,9.5C4.38,8.53,4.23,8.18,4.23,8.18L3.79,7.11h-2.1L0.77,9.5H0l2.84-6.89h0.45L6.23,9.5H4.77z M2.72,4.51L1.92,6.5
			h1.63L2.72,4.51z"/>
		<path d="M11.91,8.58c-0.23,0.29-0.55,0.51-0.94,0.67c-0.4,0.16-0.85,0.24-1.35,0.24c-0.59,0-1.11-0.11-1.53-0.32
			C7.66,8.98,7.35,8.7,7.16,8.35C6.97,8,6.87,7.54,6.9,7l0.05-0.66V4.37V2.61h1.32v1.75v2.02c0,0.34,0,0.64,0.01,0.89
			C8.29,7.52,8.3,7.7,8.33,7.82C8.38,8.08,8.5,8.28,8.76,8.47c0.25,0.19,0.61,0.29,1.08,0.29c0.36,0,0.69-0.06,0.98-0.2
			c0.31-0.13,0.52-0.3,0.65-0.49c0.14-0.2,0.24-0.4,0.27-0.58c0.04-0.22,0.09-0.58,0.09-1.06V4.25V2.61h0.62v1.72v2.13
			c0,0.56-0.05,0.97-0.1,1.24C12.29,8.02,12.12,8.32,11.91,8.58z"/>
		<path d="M19.05,8.54c-0.26,0.28-0.58,0.49-0.93,0.63c-0.34,0.14-0.67,0.23-0.98,0.27c-0.3,0.04-0.72,0.05-1.26,0.05h-1.96V2.6
			c1.67,0.01,1.98,0.01,1.98,0.01c0.96,0,1.75,0.14,2.32,0.46c0.57,0.31,0.99,0.73,1.27,1.26c0.28,0.53,0.41,1.13,0.41,1.82
			c0,0.49-0.07,0.94-0.22,1.35C19.52,7.91,19.32,8.26,19.05,8.54z M17.71,3.87c-0.24-0.25-0.5-0.41-0.78-0.5
			c-0.29-0.09-0.67-0.13-1.16-0.13c-0.17,0-0.36,0-0.53,0.01v5.62h0.79c0.55,0,0.97-0.07,1.31-0.22c0.3-0.13,0.57-0.39,0.8-0.81
			c0.22-0.41,0.33-0.95,0.33-1.62c0-0.53-0.06-0.99-0.2-1.39C18.14,4.43,17.95,4.11,17.71,3.87z"/>
		<path d="M25.23,7.07c0,0,0.5,0.67,1.21,2.43h-1.2c-0.11-0.44-0.97-3.08-2.62-3.08l-0.07-0.01v1.16V9.5h-1.32V7.57V4.44V2.61h1.61
			c0.61,0,1.13,0.04,1.54,0.15c0.4,0.12,0.75,0.29,1.02,0.59c0.27,0.3,0.41,0.66,0.41,1.06c0,0.48-0.17,0.89-0.52,1.22
			c-0.23,0.23-0.55,0.41-0.93,0.54C24.69,6.41,24.98,6.73,25.23,7.07z M22.74,3.29l-0.2-0.01V5.8h0.55c0.1-0.01,0.2-0.02,0.3-0.04
			c0.11-0.03,0.21-0.06,0.3-0.09c0.13-0.04,0.26-0.14,0.37-0.25c0.09-0.08,0.16-0.19,0.22-0.34c0.05-0.14,0.09-0.32,0.09-0.57
			c0-0.41-0.11-0.7-0.29-0.94C23.91,3.38,23.51,3.29,22.74,3.29z"/>
		<path d="M29.67,3.23h-0.66v1.19v0.19v0.96h0.45h1.41v0.62h-1.39h-0.48v0.59v0.14v0.24v0.45v1.24h0.64h2.19v0.62h-4.17V7.63V7.18
			V6.79V4.41V2.6h4.19v0.63H29.67z"/>
		<path d="M36.53,6.78V9.5H35.2V6.84l-2.64-4.23h1.66l1.99,3.44l1.98-3.44h0.87L36.53,6.78z"/>
		<path d="M46.93,9.5v-3.3h-3.06v3.3h-1.33V2.61h1.33v2.96h3.06V2.61h1.33V9.5H46.93z"/>
		<path d="M51.71,3.23h-0.66v1.19v0.19v0.96h0.45h1.41v0.62h-1.39h-0.48v0.59v0.14v0.24v0.45v1.24h0.64h2.19v0.62h-4.17V7.63V7.18
			V6.79V4.41V2.6h4.19v0.63H51.71z"/>
		<path d="M58.28,6.26c-0.35,0.16-0.91,0.19-1.64,0.19h-0.5v1.22c0,0.27-0.01,0.41,0,0.63l-0.2-0.19c0.2,0.2,0.2,1.39,0.2,1.39
			h-1.32V7.67V4.52V2.61h1.51c0.67,0,1.21,0.07,1.59,0.18c0.4,0.12,0.72,0.34,0.98,0.63c0.26,0.32,0.39,0.69,0.39,1.13
			c0,0.39-0.08,0.72-0.26,1.03C58.85,5.89,58.59,6.1,58.28,6.26z M56.43,3.29c-0.11,0-0.21,0-0.29,0v2.53h0.25
			c0.38,0,0.64-0.01,0.83-0.07c0.19-0.05,0.34-0.15,0.47-0.35s0.2-0.45,0.2-0.76c0-0.5-0.13-0.83-0.33-1.03S57,3.29,56.43,3.29z"/>
		<path d="M63.7,9.36c-0.4,0.1-0.92,0.13-1.55,0.13h-1.69V2.61h1.5c1.75,0,2.84,0.5,2.84,1.72c0,0.48-0.17,0.86-0.52,1.16
			c-0.15,0.13-0.33,0.23-0.55,0.31c0.32,0.1,0.59,0.24,0.81,0.43c0.41,0.35,0.6,0.79,0.6,1.31c0,0.45-0.13,0.85-0.41,1.18
			C64.47,9.07,64.12,9.26,63.7,9.36z M62.91,3.38c-0.14-0.08-0.43-0.13-0.9-0.13c-0.06,0-0.14,0.01-0.22,0.01v2.31h0.04
			c0.68,0,1.07-0.12,1.26-0.28s0.31-0.44,0.31-0.89c0-0.32-0.05-0.54-0.13-0.68C63.19,3.57,63.07,3.46,62.91,3.38z M61.99,6.19
			c-0.05,0-0.13,0-0.2,0v2.63h0.61c0.5,0,0.8-0.06,0.99-0.26c0.21-0.21,0.32-0.53,0.32-1.03s-0.13-0.82-0.36-1.02
			C63.13,6.31,62.7,6.19,61.99,6.19z"/>
		<path d="M71.57,8.58c-0.23,0.29-0.55,0.51-0.94,0.67c-0.4,0.16-0.85,0.24-1.35,0.24c-0.59,0-1.11-0.11-1.53-0.32
			c-0.43-0.21-0.74-0.49-0.93-0.84C66.64,8,66.53,7.54,66.56,7l0.04-0.66V4.37V2.61h1.32v1.75v2.02c0,0.34,0,0.64,0.01,0.89
			c0.01,0.24,0.02,0.42,0.05,0.55c0.05,0.25,0.18,0.46,0.43,0.65c0.25,0.19,0.61,0.29,1.08,0.29c0.36,0,0.69-0.06,0.98-0.2
			c0.31-0.13,0.52-0.3,0.65-0.49c0.14-0.2,0.24-0.4,0.27-0.58c0.04-0.22,0.09-0.58,0.09-1.06V4.25V2.61h0.62v1.72v2.13
			c0,0.56-0.05,0.97-0.1,1.24C71.96,8.02,71.78,8.32,71.57,8.58z"/>
		<path d="M77.54,7.07c0,0,0.5,0.67,1.21,2.43h-1.2c-0.11-0.44-0.97-3.08-2.62-3.08l-0.07-0.01v1.16V9.5h-1.32V7.57V4.44V2.61h1.61
			c0.61,0,1.13,0.04,1.54,0.15c0.4,0.12,0.75,0.29,1.02,0.59c0.27,0.3,0.41,0.66,0.41,1.06c0,0.48-0.17,0.89-0.52,1.22
			c-0.23,0.23-0.55,0.41-0.93,0.54C77,6.41,77.29,6.73,77.54,7.07z M75.06,3.29l-0.2-0.01V5.8h0.55c0.1-0.01,0.2-0.02,0.3-0.04
			c0.11-0.03,0.21-0.06,0.3-0.09c0.13-0.04,0.26-0.14,0.37-0.25c0.09-0.08,0.16-0.19,0.22-0.34c0.05-0.14,0.09-0.32,0.09-0.57
			c0-0.41-0.11-0.7-0.29-0.94C76.23,3.38,75.83,3.29,75.06,3.29z"/>
		<path d="M84.94,9.5L80.7,3.92v3.8v1.62h-0.62V7.72V4.36V2.61h1.29l3.38,4.51V3.94V2.61h0.68v1.4V9.5H84.94z"/>
	</g>
	<g>
		<path d="M96.53,3.63h0.53v5.66h-0.53V3.63z"/>
		<path d="M98.61,3.63h0.68l3.45,4.96h0.02V3.63h0.53v5.66h-0.68l-3.45-4.96h-0.02v4.96h-0.53V3.63z"/>
		<path d="M104.84,3.63h0.68l3.45,4.96h0.02V3.63h0.53v5.66h-0.68l-3.45-4.96h-0.02v4.96h-0.53V3.63z"/>
		<path d="M111.06,3.63h3.46v0.48h-2.94v2.02h2.75V6.6h-2.75v2.21h3.06v0.48h-3.59V3.63z"/>
		<path d="M115.81,3.63h1.49c0.07,0,0.18,0,0.3,0.01c0.13,0.01,0.27,0.02,0.42,0.05c0.15,0.03,0.3,0.07,0.46,0.13
			c0.15,0.06,0.29,0.14,0.42,0.26c0.12,0.11,0.22,0.25,0.3,0.42s0.12,0.38,0.12,0.62c0,0.27-0.05,0.5-0.14,0.67
			c-0.09,0.18-0.21,0.32-0.35,0.43s-0.3,0.19-0.47,0.24c-0.17,0.05-0.33,0.09-0.49,0.11l1.65,2.72h-0.6l-1.59-2.69h-0.98v2.69h-0.53
			V3.63z M116.33,6.12h1.12c0.28,0,0.5-0.03,0.68-0.1c0.17-0.07,0.31-0.15,0.4-0.26c0.1-0.1,0.16-0.21,0.2-0.33
			c0.04-0.12,0.05-0.22,0.05-0.32c0-0.1-0.02-0.2-0.05-0.32s-0.1-0.23-0.2-0.33c-0.1-0.1-0.23-0.19-0.4-0.26
			c-0.17-0.07-0.4-0.1-0.68-0.1h-1.12V6.12z"/>
		<path d="M122.63,3.63h1.63c0.21,0,0.43,0.02,0.65,0.05c0.22,0.04,0.42,0.11,0.59,0.22c0.17,0.11,0.31,0.26,0.42,0.46
			c0.11,0.2,0.16,0.45,0.16,0.77c0,0.29-0.08,0.54-0.26,0.75c-0.17,0.21-0.42,0.35-0.76,0.42v0.02c0.19,0.02,0.36,0.06,0.51,0.13
			c0.16,0.07,0.29,0.17,0.4,0.29s0.2,0.26,0.26,0.43s0.09,0.35,0.09,0.54c0,0.33-0.06,0.59-0.19,0.8c-0.13,0.21-0.28,0.37-0.47,0.48
			c-0.19,0.12-0.39,0.2-0.62,0.24c-0.22,0.04-0.43,0.06-0.62,0.06h-1.81V3.63z M123.16,6.08h1.1c0.27,0,0.49-0.03,0.66-0.1
			c0.17-0.07,0.3-0.15,0.4-0.24c0.1-0.1,0.16-0.2,0.19-0.31c0.03-0.11,0.05-0.21,0.05-0.3c0-0.2-0.03-0.36-0.1-0.49
			s-0.16-0.23-0.27-0.31s-0.24-0.13-0.39-0.16s-0.31-0.05-0.47-0.05h-1.17V6.08z M123.16,8.81h1.21c0.31,0,0.56-0.04,0.75-0.11
			c0.19-0.08,0.33-0.17,0.44-0.28c0.1-0.11,0.17-0.23,0.2-0.36c0.04-0.13,0.05-0.24,0.05-0.34c0-0.21-0.04-0.39-0.12-0.54
			c-0.08-0.15-0.18-0.27-0.31-0.36c-0.13-0.09-0.27-0.16-0.44-0.2c-0.16-0.04-0.33-0.06-0.49-0.06h-1.29V8.81z"/>
		<path d="M127.67,3.63h3.46v0.48h-2.94v2.02h2.75V6.6h-2.75v2.21h3.06v0.48h-3.59V3.63z"/>
		<path d="M134.15,3.63h0.54l2.38,5.66h-0.59l-0.62-1.5h-3l-0.64,1.5h-0.55L134.15,3.63z M134.4,4.2l-1.32,3.1h2.6L134.4,4.2z"/>
		<path d="M141.92,7.12c0,0.3-0.04,0.59-0.1,0.87s-0.18,0.52-0.35,0.74c-0.16,0.21-0.38,0.38-0.64,0.51
			c-0.26,0.13-0.59,0.19-0.97,0.19c-0.38,0-0.71-0.06-0.97-0.19s-0.48-0.3-0.64-0.51c-0.16-0.21-0.28-0.46-0.35-0.74
			s-0.1-0.57-0.1-0.87v-3.5h0.53v3.36c0,0.2,0.02,0.42,0.06,0.65c0.04,0.23,0.11,0.44,0.22,0.64s0.26,0.36,0.46,0.49
			c0.2,0.13,0.47,0.19,0.8,0.19c0.33,0,0.6-0.06,0.8-0.19c0.2-0.13,0.35-0.29,0.46-0.49s0.18-0.41,0.22-0.64
			c0.04-0.23,0.06-0.45,0.06-0.65V3.63h0.53V7.12z"/>
		<path d="M144.62,4.11h-1.94V3.63h4.4v0.48h-1.94v5.18h-0.53V4.11z"/>
		<path d="M149.21,6.85l-2.08-3.22h0.63l1.71,2.69l1.75-2.69h0.59l-2.08,3.22v2.44h-0.53V6.85z"/>
	</g>
	<g>
		<path d="M91.59,0v12h-0.58V0H91.59z"/>
	</g>
</g>
</svg>
